<?xml version="1.0" encoding="utf-8"?>
<!-- Generator: Adobe Illustrator 16.0.0, SVG Export Plug-In . SVG Version: 6.00 Build 0)  -->
<!DOCTYPE svg PUBLIC "-//W3C//DTD SVG 1.1//EN" "http://www.w3.org/Graphics/SVG/1.1/DTD/svg11.dtd">
<svg version="1.1" id="Layer_1" xmlns="http://www.w3.org/2000/svg" xmlns:xlink="http://www.w3.org/1999/xlink" x="0px" y="0px"
	 width="50px" height="29.154px" viewBox="0 0 50 29.154" enable-background="new 0 0 50 29.154" xml:space="preserve">
<g>
	<path fill="#858CA3" d="M26.152,28.656L49.498,5.308C49.832,4.975,50,4.591,50,4.155c0-0.433-0.168-0.815-0.502-1.149l-2.504-2.507
		c-0.333-0.333-0.719-0.498-1.153-0.498s-0.819,0.165-1.153,0.498L25,20.189L5.309,0.499C4.976,0.166,4.591,0,4.155,0
		C3.723,0,3.339,0.164,3.002,0.497L0.5,3.005C0.165,3.339,0,3.722,0,4.155c0,0.437,0.165,0.82,0.5,1.153l23.348,23.347
		c0.332,0.334,0.717,0.5,1.152,0.5C25.432,29.156,25.816,28.99,26.152,28.656L26.152,28.656z"/>
</g>
</svg>
