<?xml version="1.0" encoding="utf-8"?>
<!-- Generator: Adobe Illustrator 16.0.0, SVG Export Plug-In . SVG Version: 6.00 Build 0)  -->
<!DOCTYPE svg PUBLIC "-//W3C//DTD SVG 1.1//EN" "http://www.w3.org/Graphics/SVG/1.1/DTD/svg11.dtd">
<svg version="1.1" id="Layer_1" xmlns="http://www.w3.org/2000/svg" xmlns:xlink="http://www.w3.org/1999/xlink" x="0px" y="0px"
	 width="18.06px" height="15px" viewBox="0 0 18.06 15" enable-background="new 0 0 18.06 15" xml:space="preserve">
<g>
	<g>
		<path fill="#FFFFFF" d="M0.987,8.91h12.084l-3.799,3.808c-0.186,0.186-0.288,0.438-0.288,0.702c0,0.264,0.103,0.514,0.288,0.7
			l0.591,0.591C10.049,14.897,10.297,15,10.562,15c0.264,0,0.512-0.102,0.698-0.288l6.512-6.511c0.187-0.187,0.289-0.435,0.288-0.7
			c0-0.266-0.102-0.515-0.288-0.701l-6.512-6.512C11.073,0.102,10.826,0,10.562,0c-0.264,0-0.512,0.102-0.698,0.288L9.272,0.879
			C9.087,1.065,8.984,1.313,8.984,1.577c0,0.265,0.103,0.499,0.288,0.685l3.842,3.829H1.001C0.458,6.09,0,6.56,0,7.103V7.94
			c0,0.544,0.471,0.976,1.015,0.976"/>
	</g>
</g>
</svg>
