<?xml version="1.0" encoding="utf-8"?>
<!-- Generator: Adobe Illustrator 16.0.0, SVG Export Plug-In . SVG Version: 6.00 Build 0)  -->
<!DOCTYPE svg PUBLIC "-//W3C//DTD SVG 1.1//EN" "http://www.w3.org/Graphics/SVG/1.1/DTD/svg11.dtd">
<svg version="1.1" id="Layer_1" xmlns="http://www.w3.org/2000/svg" xmlns:xlink="http://www.w3.org/1999/xlink" x="0px" y="0px"
	 width="50.139px" height="50.139px" viewBox="0 0 50.139 50.139" enable-background="new 0 0 50.139 50.139" xml:space="preserve">
<path fill="#EF4650" d="M25.068,0c13.846,0,25.07,11.224,25.07,25.067c0,13.847-11.226,25.069-25.07,25.069
	C11.224,50.139,0,38.915,0,25.069C0,11.223,11.224,0,25.068,0L25.068,0z"/>
<path opacity="0.5" fill="#DB3B4B" enable-background="new    " d="M50.138,25.069c0,13.788-11.281,25.069-25.07,25.069
	c-7.989,0-15.041-3.604-19.586-9.401c4.23,3.447,9.715,5.484,15.67,5.484c13.788,0,25.069-11.281,25.069-25.069
	c0-5.952-2.037-11.438-5.484-15.669C46.535,10.027,50.138,17.078,50.138,25.069L50.138,25.069z"/>
<path fill="#FFFFFF" d="M35.643,35.643c-0.869,0.868-2.318,0.868-3.186,0l-7.389-7.387l-7.386,7.387
	c-0.869,0.868-2.318,0.868-3.187,0c-0.868-0.868-0.868-2.317,0-3.186l7.388-7.388l-7.388-7.386c-0.868-0.869-0.868-2.319,0-3.186
	c0.869-0.87,2.318-0.87,3.187,0l7.386,7.387l7.389-7.387c0.867-0.87,2.317-0.87,3.186,0c0.868,0.867,0.868,2.317,0,3.186
	l-7.387,7.386l7.387,7.388C36.512,33.325,36.512,34.774,35.643,35.643L35.643,35.643z"/>
</svg>
