<?xml version="1.0" encoding="utf-8"?>
<!-- Generator: Adobe Illustrator 16.0.0, SVG Export Plug-In . SVG Version: 6.00 Build 0)  -->
<!DOCTYPE svg PUBLIC "-//W3C//DTD SVG 1.1//EN" "http://www.w3.org/Graphics/SVG/1.1/DTD/svg11.dtd">
<svg version="1.1" id="Layer_1" xmlns="http://www.w3.org/2000/svg" xmlns:xlink="http://www.w3.org/1999/xlink" x="0px" y="0px"
	 width="66.121px" height="60.216px" viewBox="-8.111 -5.373 66.121 60.216" enable-background="new -8.111 -5.373 66.121 60.216"
	 xml:space="preserve">
<path fill="#FFFFFF" d="M55.778,31.401L38.22,2.142c-2.822-4.705-7.783-7.515-13.27-7.515c-0.552,0-1.11,0.035-1.757,0.109
	L23.15-5.26c-0.099,0.01-0.198,0.021-0.296,0.034c-0.07,0.007-0.138,0.016-0.205,0.025c-0.127,0.018-0.252,0.041-0.376,0.068
	C17.848-4.365,14-1.729,11.677,2.141L-5.879,31.4c-2.905,4.843-2.979,10.67-0.199,15.588c0.109,0.192,0.214,0.357,0.303,0.491
	c0.051,0.091,0.104,0.181,0.161,0.27c0.108,0.169,0.225,0.33,0.346,0.488c0.214,0.309,0.414,0.579,0.616,0.831
	c0.163,0.204,0.343,0.411,0.527,0.617c0.005,0.006,0.04,0.045,0.046,0.051c0.22,0.244,0.459,0.507,0.749,0.788
	c0.189,0.184,0.383,0.354,0.58,0.523l0.069,0.06c0.002,0.002,0.042,0.036,0.044,0.038c0.218,0.188,0.488,0.42,0.822,0.667
	c0.209,0.155,0.442,0.311,0.676,0.463l0.067,0.043l0.045,0.03c0.208,0.139,0.495,0.328,0.833,0.518
	c0.247,0.139,0.498,0.262,0.751,0.382l0.107,0.051l0.108,0.053c0.265,0.13,0.53,0.256,0.805,0.366c0.32,0.13,0.621,0.227,0.84,0.297
	l0.129,0.042l0.13,0.043c0.254,0.087,0.509,0.17,0.771,0.237c0.428,0.111,0.807,0.177,1.111,0.229l0.103,0.019l0.021,0.005
	c0.232,0.049,0.465,0.093,0.702,0.123c0.674,0.087,1.35,0.13,2.011,0.13h35.107c5.653,0,10.689-2.936,13.473-7.853
	C58.756,42.072,58.683,36.245,55.778,31.401z"/>
<g>
	<path fill="#F5AF50" d="M-1.591,33.973c-1.967,3.279-2.017,7.225-0.134,10.555c1.885,3.33,5.293,5.315,9.12,5.315h35.107
		c3.827,0,7.236-1.985,9.121-5.315c1.884-3.33,1.834-7.274-0.133-10.555L33.933,4.714c-1.911-3.186-5.269-5.087-8.983-5.087
		c-3.715,0-7.073,1.902-8.985,5.087L-1.591,33.973L-1.591,33.973z M-1.591,33.973"/>
	<path fill="#F4A63D" d="M-1.407,45.047c1.935,3.012,5.179,4.796,8.802,4.796h35.107c3.827,0,7.236-1.985,9.121-5.315
		c1.884-3.33,1.834-7.274-0.133-10.555L33.933,4.714c-1.911-3.186-5.269-5.087-8.983-5.087c-0.541,0-1.072,0.045-1.595,0.123
		c0.037,0.056,0.075,0.111,0.108,0.167l17.554,29.258c1.967,3.28,2.017,7.228,0.132,10.556c-1.883,3.325-5.291,5.316-9.118,5.316
		H-1.407z M32.031,45.047"/>
</g>
<g>
	<path fill="#FFFFFF" d="M24.977,38.442c-0.74,0-1.384-0.238-1.936-0.718c-0.552-0.477-0.827-1.147-0.827-2.009
		c0-0.763,0.267-1.405,0.801-1.926c0.531-0.521,1.187-0.779,1.962-0.779c0.764,0,1.403,0.258,1.927,0.779
		c0.523,0.521,0.782,1.163,0.782,1.926c0,0.851-0.273,1.516-0.82,2.003C26.319,38.201,25.691,38.442,24.977,38.442L24.977,38.442z"
		/>
	<path fill="#FFFFFF" d="M27.126,29.18c0,1.201-0.977,2.177-2.177,2.177l0,0c-1.201,0-2.175-0.976-2.175-2.177l-0.967-15.977
		c0-1.202,1.941-2.176,3.142-2.176l0,0c1.201,0,3.144,0.974,3.144,2.176L27.126,29.18z"/>
</g>
</svg>
