<?xml version="1.0" encoding="utf-8"?>
<!-- Generator: Adobe Illustrator 16.0.0, SVG Export Plug-In . SVG Version: 6.00 Build 0)  -->
<!DOCTYPE svg PUBLIC "-//W3C//DTD SVG 1.1//EN" "http://www.w3.org/Graphics/SVG/1.1/DTD/svg11.dtd">
<svg version="1.1" id="Layer_1" xmlns="http://www.w3.org/2000/svg" xmlns:xlink="http://www.w3.org/1999/xlink" x="0px" y="0px"
	 width="49.797px" height="49.797px" viewBox="0 0 49.797 49.797" enable-background="new 0 0 49.797 49.797" xml:space="preserve">
<g>
	<path fill="#787F92" d="M24.9,0.672c13.75,0,24.897,11.148,24.897,24.9c0,13.751-11.146,24.897-24.897,24.897
		C11.148,50.47,0,39.325,0,25.573S11.148,0.672,24.9,0.672L24.9,0.672z"/>
	<path opacity="0.8" fill="#69707F" enable-background="new    " d="M49.797,25.573c0,13.692-11.203,24.897-24.897,24.897
		c-7.938,0-14.94-3.577-19.453-9.337c4.202,3.425,9.649,5.447,15.562,5.447c13.694,0,24.899-11.205,24.899-24.9
		c0-5.912-2.021-11.358-5.445-15.562C46.221,10.632,49.797,17.635,49.797,25.573L49.797,25.573z"/>
</g>
<path fill="#FFFFFF" d="M15.503,19.202c0-1.19,0.382-2.395,1.147-3.617c0.763-1.222,1.878-2.233,3.344-3.036
	c1.466-0.801,3.176-1.203,5.129-1.203c1.815,0,3.421,0.336,4.812,1.006c1.392,0.67,2.464,1.583,3.223,2.734
	c0.758,1.152,1.137,2.405,1.137,3.758c0,1.064-0.216,1.998-0.647,2.801c-0.434,0.801-0.947,1.493-1.542,2.075
	c-0.595,0.583-1.662,1.563-3.204,2.941c-0.426,0.388-0.768,0.729-1.024,1.024c-0.256,0.294-0.447,0.563-0.573,0.809
	c-0.126,0.244-0.221,0.487-0.291,0.733c-0.067,0.244-0.173,0.672-0.31,1.286c-0.238,1.305-0.984,1.956-2.237,1.956
	c-0.651,0-1.2-0.216-1.644-0.64c-0.446-0.429-0.667-1.061-0.667-1.898c0-1.054,0.162-1.964,0.488-2.734
	c0.326-0.771,0.758-1.447,1.297-2.029c0.538-0.583,1.265-1.275,2.181-2.076c0.802-0.703,1.381-1.231,1.737-1.588
	c0.356-0.358,0.658-0.756,0.9-1.194c0.246-0.438,0.367-0.914,0.367-1.429c0-1.002-0.372-1.847-1.12-2.536
	c-0.743-0.688-1.706-1.034-2.884-1.034c-1.377,0-2.393,0.347-3.043,1.043c-0.653,0.695-1.203,1.72-1.654,3.072
	c-0.427,1.416-1.234,2.124-2.424,2.124c-0.701,0-1.294-0.247-1.776-0.742C15.745,20.314,15.503,19.777,15.503,19.202L15.503,19.202z
	 M24.674,39.796c-0.765,0-1.431-0.246-2.001-0.741c-0.57-0.492-0.855-1.187-0.855-2.076c0-0.789,0.276-1.454,0.827-1.993
	c0.55-0.538,1.228-0.807,2.03-0.807c0.79,0,1.452,0.269,1.992,0.807c0.539,0.539,0.81,1.203,0.81,1.993
	c0,0.878-0.283,1.565-0.848,2.067C26.063,39.546,25.413,39.796,24.674,39.796L24.674,39.796z"/>
</svg>
