<?xml version="1.0" encoding="utf-8"?>
<!-- Generator: Adobe Illustrator 16.0.0, SVG Export Plug-In . SVG Version: 6.00 Build 0)  -->
<!DOCTYPE svg PUBLIC "-//W3C//DTD SVG 1.1//EN" "http://www.w3.org/Graphics/SVG/1.1/DTD/svg11.dtd">
<svg version="1.1" id="Layer_1" xmlns="http://www.w3.org/2000/svg" xmlns:xlink="http://www.w3.org/1999/xlink" x="0px" y="0px"
	 width="49.797px" height="49.799px" viewBox="0.102 0.101 49.797 49.799" enable-background="new 0.102 0.101 49.797 49.799"
	 xml:space="preserve">
<path fill="#3796FA" d="M25.002,0.101c13.75,0,24.896,11.148,24.896,24.9c0,13.75-11.146,24.896-24.896,24.896
	c-13.752,0.002-24.9-11.145-24.9-24.896S11.25,0.101,25.002,0.101L25.002,0.101z"/>
<path opacity="0.6" fill="#0086D8" d="M49.898,25.001c0,13.693-11.203,24.898-24.896,24.898c-7.938,0-14.94-3.578-19.453-9.338
	c4.202,3.426,9.649,5.447,15.562,5.447c13.694,0,24.899-11.205,24.899-24.9c0-5.912-2.021-11.357-5.445-15.562
	C46.322,10.061,49.898,17.063,49.898,25.001L49.898,25.001z"/>
<g>
	<path fill="#FFFFFF" d="M28.66,36.335c-0.771,0-1.303-0.125-1.616-0.381c-0.306-0.245-0.468-0.721-0.468-1.416
		c0-0.276,0.048-0.683,0.143-1.216c0.105-0.534,0.21-1.018,0.333-1.437l1.475-5.22c0.143-0.477,0.237-0.998,0.295-1.578
		c0.047-0.57,0.076-0.971,0.076-1.198c0-1.101-0.391-1.994-1.16-2.679c-0.771-0.687-1.865-1.036-3.286-1.036
		c-0.793,0-1.627,0.141-2.515,0.428c-0.883,0.286-1.814,0.618-2.785,1.019l-0.387,1.605c0.283-0.104,0.625-0.219,1.025-0.345
		c0.4-0.114,0.799-0.168,1.178-0.168c0.78,0,1.303,0.124,1.578,0.389c0.278,0.264,0.419,0.732,0.419,1.396
		c0,0.373-0.045,0.78-0.133,1.236c-0.086,0.438-0.201,0.912-0.334,1.416l-1.483,5.239c-0.131,0.551-0.226,1.036-0.285,1.474
		c-0.057,0.438-0.086,0.864-0.086,1.283c0,1.076,0.392,1.969,1.189,2.661c0.791,0.704,1.91,1.057,3.346,1.057
		c0.933,0,1.75-0.124,2.453-0.37c0.704-0.248,1.645-0.6,2.833-1.066l0.4-1.615c-0.21,0.096-0.542,0.208-0.989,0.332
		C29.42,36.268,29.021,36.335,28.66,36.335z"/>
	<path fill="#FFFFFF" d="M27.719,10.629c-0.961,0-1.798,0.323-2.491,0.957c-0.683,0.647-1.037,1.427-1.037,2.333
		c0,0.913,0.354,1.692,1.037,2.33c0.693,0.634,1.53,0.956,2.491,0.956c0.969,0,1.796-0.322,2.489-0.956
		c0.686-0.638,1.028-1.417,1.028-2.33c0-0.905-0.343-1.686-1.028-2.333C29.515,10.953,28.688,10.629,27.719,10.629z"/>
</g>
</svg>
