<?xml version="1.0" encoding="utf-8"?>
<!-- Generator: Adobe Illustrator 16.0.0, SVG Export Plug-In . SVG Version: 6.00 Build 0)  -->
<!DOCTYPE svg PUBLIC "-//W3C//DTD SVG 1.1//EN" "http://www.w3.org/Graphics/SVG/1.1/DTD/svg11.dtd">
<svg version="1.1" id="Layer_1" xmlns="http://www.w3.org/2000/svg" xmlns:xlink="http://www.w3.org/1999/xlink" x="0px" y="0px"
	 width="50px" height="29.154px" viewBox="0 0 50 29.154" enable-background="new 0 0 50 29.154" xml:space="preserve">
<g>
	<path fill="#858CA3" d="M23.848,0.5L0.502,23.847C0.168,24.18,0,24.565,0,25c0,0.433,0.168,0.815,0.502,1.149l2.504,2.507
		c0.333,0.333,0.719,0.498,1.153,0.498s0.819-0.165,1.153-0.498L25,8.967l19.69,19.69c0.333,0.333,0.719,0.499,1.154,0.499
		c0.432,0,0.816-0.164,1.153-0.497l2.502-2.508C49.835,25.817,50,25.433,50,25c0-0.437-0.165-0.82-0.5-1.153L26.151,0.5
		C25.819,0.166,25.435,0,25,0C24.568,0,24.184,0.166,23.848,0.5L23.848,0.5z"/>
</g>
</svg>
