<?xml version="1.0" encoding="utf-8"?>
<!-- Generator: Adobe Illustrator 16.0.0, SVG Export Plug-In . SVG Version: 6.00 Build 0)  -->
<!DOCTYPE svg PUBLIC "-//W3C//DTD SVG 1.1//EN" "http://www.w3.org/Graphics/SVG/1.1/DTD/svg11.dtd">
<svg version="1.1" id="Layer_1" xmlns="http://www.w3.org/2000/svg" xmlns:xlink="http://www.w3.org/1999/xlink" x="0px" y="0px"
	 width="49.797px" height="49.797px" viewBox="0 0 49.797 49.797" enable-background="new 0 0 49.797 49.797" xml:space="preserve">
<path fill="#00C37E" d="M24.9,0c13.75,0,24.897,11.148,24.897,24.9c0,13.751-11.147,24.897-24.897,24.897
	C11.148,49.797,0,38.651,0,24.9C0,11.148,11.148,0,24.9,0L24.9,0z"/>
<path opacity="0.8" fill="#00B56F" enable-background="new    " d="M49.797,24.9c0,13.692-11.203,24.897-24.897,24.897
	c-7.938,0-14.94-3.577-19.453-9.336c4.202,3.424,9.649,5.447,15.562,5.447c13.695,0,24.9-11.205,24.9-24.901
	c0-5.913-2.022-11.359-5.445-15.562C46.22,9.96,49.797,16.963,49.797,24.9L49.797,24.9z"/>
<path fill="#FFFFFF" d="M37.175,18.404L22.5,34.489c-0.987,1.128-2.681,1.128-3.667,0l-6.208-6.914
	c-0.847-0.987-0.847-2.54,0.141-3.527c0.988-0.847,2.54-0.847,3.528,0.141l4.374,4.938l12.84-13.968
	c0.986-0.987,2.54-1.128,3.528-0.14C38.022,15.863,38.022,17.557,37.175,18.404L37.175,18.404z"/>
</svg>
