<?xml version="1.0" encoding="utf-8"?>
<!-- Generator: Adobe Illustrator 16.0.0, SVG Export Plug-In . SVG Version: 6.00 Build 0)  -->
<!DOCTYPE svg PUBLIC "-//W3C//DTD SVG 1.1//EN" "http://www.w3.org/Graphics/SVG/1.1/DTD/svg11.dtd">
<svg version="1.1" id="Layer_1" xmlns="http://www.w3.org/2000/svg" xmlns:xlink="http://www.w3.org/1999/xlink" x="0px" y="0px"
	 width="26.812px" height="26.813px" viewBox="0.569 -0.454 26.812 26.813" enable-background="new 0.569 -0.454 26.812 26.813"
	 xml:space="preserve">
<path fill="#FFFFFF" d="M26.812,22.384c0,1.565-1.27,2.835-2.835,2.835H4.24c-1.566,0-2.835-1.27-2.835-2.835V3.749
	c0-1.565,1.269-2.834,2.835-2.834h19.737c1.565,0,2.835,1.269,2.835,2.834V22.384z"/>
<path fill="#DADAE6" d="M23.791-0.454H4.157c-1.979,0-3.588,1.71-3.588,3.813v19.188c0,2.102,1.61,3.813,3.588,3.813h19.634
	c1.979,0,3.59-1.711,3.59-3.813V3.358C27.381,1.256,25.771-0.454,23.791-0.454z M25.199,22.546c0,0.862-0.632,1.563-1.408,1.563
	H4.157c-0.258,0-0.496-0.083-0.704-0.218c-0.418-0.271-0.703-0.77-0.703-1.346V3.358c0-0.573,0.283-1.071,0.699-1.344
	c0.209-0.137,0.449-0.22,0.708-0.22h19.634c0.776,0,1.408,0.702,1.408,1.563V22.546z"/>
</svg>
