<?xml version="1.0" encoding="utf-8"?>
<!-- Generator: Adobe Illustrator 16.0.0, SVG Export Plug-In . SVG Version: 6.00 Build 0)  -->
<!DOCTYPE svg PUBLIC "-//W3C//DTD SVG 1.1//EN" "http://www.w3.org/Graphics/SVG/1.1/DTD/svg11.dtd">
<svg version="1.1" id="Layer_1" xmlns="http://www.w3.org/2000/svg" xmlns:xlink="http://www.w3.org/1999/xlink" x="0px" y="0px"
	 width="26.812px" height="26.813px" viewBox="1.05 -0.471 26.812 26.813" enable-background="new 1.05 -0.471 26.812 26.813"
	 xml:space="preserve">
<path fill="#3796FA" d="M24.272-0.471H4.639c-1.979,0-3.588,1.71-3.588,3.813V22.53c0,2.102,1.61,3.813,3.588,3.813h19.634
	c1.979,0,3.59-1.711,3.59-3.813V3.342C27.862,1.24,26.252-0.471,24.272-0.471z"/>
<path fill="#FFFFFF" d="M24.316,5.675c-0.63-0.658-1.734-0.66-2.365,0L11.564,16.533l-4.605-4.812c-0.63-0.658-1.736-0.658-2.365,0
	c-0.634,0.666-0.634,1.747,0,2.412l5.786,6.048c0.31,0.324,0.741,0.51,1.183,0.51c0.448,0,0.868-0.183,1.182-0.51l11.57-12.096
	C24.951,7.421,24.951,6.339,24.316,5.675z"/>
</svg>
