<?xml version="1.0" encoding="utf-8"?>
<!-- Generator: Adobe Illustrator 16.0.0, SVG Export Plug-In . SVG Version: 6.00 Build 0)  -->
<!DOCTYPE svg PUBLIC "-//W3C//DTD SVG 1.1//EN" "http://www.w3.org/Graphics/SVG/1.1/DTD/svg11.dtd">
<svg version="1.1" id="Layer_1" xmlns="http://www.w3.org/2000/svg" xmlns:xlink="http://www.w3.org/1999/xlink" x="0px" y="0px"
	 width="20px" height="20.12px" viewBox="0 0 20 20.12" enable-background="new 0 0 20 20.12" xml:space="preserve">
<rect fill="none" width="20" height="20"/>
<path fill="#858CA3" d="M13.334,7.62H6.667V5.954C6.667,4.115,8.162,2.62,10,2.62s3.334,1.495,3.334,3.333V7.62L13.334,7.62z
	 M10.984,13.96l0.264,2.364c0.013,0.117-0.025,0.235-0.104,0.324s-0.192,0.139-0.311,0.139H9.167c-0.118,0-0.231-0.051-0.312-0.139
	c-0.078-0.088-0.116-0.207-0.104-0.324l0.264-2.364c-0.428-0.311-0.682-0.801-0.682-1.34c0-0.919,0.746-1.667,1.666-1.667
	s1.667,0.748,1.667,1.667C11.667,13.159,11.412,13.65,10.984,13.96L10.984,13.96z M17.084,7.62h-1.25V5.954
	c0-3.217-2.617-5.833-5.834-5.833S4.167,2.737,4.167,5.954V7.62h-1.25C2.687,7.62,2.5,7.806,2.5,8.037v10.417
	c0,0.919,0.748,1.667,1.667,1.667h11.667c0.918,0,1.666-0.748,1.666-1.667V8.037C17.5,7.806,17.313,7.62,17.084,7.62L17.084,7.62z"
	/>
</svg>
