<?xml version="1.0" encoding="utf-8"?>
<!-- Generator: Adobe Illustrator 16.0.0, SVG Export Plug-In . SVG Version: 6.00 Build 0)  -->
<!DOCTYPE svg PUBLIC "-//W3C//DTD SVG 1.1//EN" "http://www.w3.org/Graphics/SVG/1.1/DTD/svg11.dtd">
<svg version="1.1" id="Layer_1" xmlns="http://www.w3.org/2000/svg" xmlns:xlink="http://www.w3.org/1999/xlink" x="0px" y="0px"
	 width="20px" height="20px" viewBox="0 0 20 20" enable-background="new 0 0 20 20" xml:space="preserve">
<g>
	<path fill="#858CA3" d="M10,10.547c-2.908,0-5.274-2.366-5.274-5.273C4.726,2.365,7.092,0,10,0s5.273,2.365,5.273,5.273
		C15.273,8.181,12.908,10.547,10,10.547L10,10.547z"/>
	<path fill="#858CA3" d="M18.203,20H1.797c-0.324,0-0.586-0.263-0.586-0.586c0-2.038,0.791-3.963,2.228-5.423
		c1.444-1.466,3.357-2.272,5.389-2.272h2.344c2.031,0,3.945,0.807,5.39,2.272c1.436,1.46,2.228,3.385,2.228,5.423
		C18.789,19.737,18.527,20,18.203,20L18.203,20z"/>
</g>
<rect fill="none" width="20" height="20"/>
</svg>
