<?xml version="1.0" encoding="utf-8"?>
<!-- Generator: Adobe Illustrator 16.0.0, SVG Export Plug-In . SVG Version: 6.00 Build 0)  -->
<!DOCTYPE svg PUBLIC "-//W3C//DTD SVG 1.1//EN" "http://www.w3.org/Graphics/SVG/1.1/DTD/svg11.dtd">
<svg version="1.1" id="Layer_1" xmlns="http://www.w3.org/2000/svg" xmlns:xlink="http://www.w3.org/1999/xlink" x="0px" y="0px"
	 width="40.46px" height="40.458px" viewBox="0 0 40.46 40.458" enable-background="new 0 0 40.46 40.458" xml:space="preserve">
<g>
	<path fill="#3E97F9" d="M38.14,0H14.611l18.984,18.985c2.033,2.032,4.361,3.607,6.863,4.719V2.319C40.46,1.04,39.419,0,38.14,0z"/>
	<path fill="#1A7CFF" d="M14.611,0H0L40.46,40.458V23.704c-2.502-1.11-4.832-2.687-6.863-4.719L14.611,0z"/>
	<path fill="#1A7CFF" d="M14.611,0H0l40.46,40.458V23.704c-2.502-1.109-4.832-2.686-6.863-4.718L14.611,0z"/>
	<path fill="#FFFFFF" d="M34.81,8.901l-7.498,8.219c-0.504,0.578-1.369,0.578-1.873,0l-3.172-3.531
		c-0.436-0.505-0.436-1.299,0.068-1.805c0.506-0.432,1.299-0.432,1.805,0.072l2.234,2.523l6.563-7.139
		c0.506-0.504,1.299-0.576,1.803-0.071C35.244,7.601,35.244,8.467,34.81,8.901L34.81,8.901z"/>
</g>
</svg>
