<?xml version="1.0" encoding="utf-8"?>
<!-- Generator: Adobe Illustrator 16.0.0, SVG Export Plug-In . SVG Version: 6.00 Build 0)  -->
<!DOCTYPE svg PUBLIC "-//W3C//DTD SVG 1.1//EN" "http://www.w3.org/Graphics/SVG/1.1/DTD/svg11.dtd">
<svg version="1.1" id="Layer_1" xmlns="http://www.w3.org/2000/svg" xmlns:xlink="http://www.w3.org/1999/xlink" x="0px" y="0px"
	 width="15px" height="15px" viewBox="0 0 15 15" enable-background="new 0 0 15 15" xml:space="preserve">
<path fill="#808491" d="M14.796,13.816l-3.81-3.783c0.878-1.092,1.359-2.459,1.359-3.86C12.346,2.77,9.577,0,6.173,0
	C2.769,0,0,2.77,0,6.173c0,1.072,0.279,2.128,0.808,3.055c0.123,0.216,0.354,0.35,0.602,0.35c0.12,0,0.238-0.031,0.342-0.091
	c0.161-0.092,0.276-0.24,0.325-0.419S2.102,8.702,2.01,8.542C1.601,7.824,1.385,7.005,1.385,6.173c0-2.641,2.148-4.788,4.789-4.788
	c2.64,0,4.789,2.147,4.789,4.788s-2.148,4.789-4.789,4.789c-0.822,0-1.632-0.212-2.344-0.612c-0.104-0.058-0.221-0.089-0.338-0.089
	c-0.25,0-0.482,0.136-0.604,0.354c-0.091,0.161-0.113,0.348-0.063,0.526c0.05,0.178,0.166,0.326,0.327,0.416
	c0.918,0.517,1.963,0.789,3.022,0.789c1.388,0,2.745-0.474,3.832-1.336l3.815,3.789C13.95,14.929,14.124,15,14.308,15
	c0.186,0,0.36-0.072,0.491-0.204C15.068,14.524,15.066,14.086,14.796,13.816z"/>
</svg>
