<?xml version="1.0" encoding="utf-8"?>
<!-- Generator: Adobe Illustrator 16.0.0, SVG Export Plug-In . SVG Version: 6.00 Build 0)  -->
<!DOCTYPE svg PUBLIC "-//W3C//DTD SVG 1.1//EN" "http://www.w3.org/Graphics/SVG/1.1/DTD/svg11.dtd">
<svg version="1.1" id="Layer_1" xmlns="http://www.w3.org/2000/svg" xmlns:xlink="http://www.w3.org/1999/xlink" x="0px" y="0px"
	 width="14.25px" height="12px" viewBox="0 0 14.25 12" enable-background="new 0 0 14.25 12" xml:space="preserve">
<g>
	<path fill="#FFFFFF" d="M4.368,2.181h7.701c0.604,0,1.09-0.488,1.09-1.091S12.672,0,12.068,0H4.368C3.766,0,3.277,0.487,3.277,1.09
		S3.766,2.181,4.368,2.181L4.368,2.181z"/>
	<path fill="#FFFFFF" d="M0.328,0.321C0.123,0.525,0.007,0.802,0.006,1.09c-0.008,0.071-0.008,0.143,0,0.213
		c0.013,0.071,0.033,0.141,0.06,0.207C0.095,1.574,0.13,1.637,0.169,1.695c0.039,0.062,0.085,0.118,0.137,0.169
		c0.05,0.05,0.104,0.094,0.164,0.131c0.057,0.042,0.12,0.076,0.185,0.104c0.072,0.037,0.149,0.064,0.229,0.082
		c0.071,0.008,0.142,0.008,0.212,0c0.289,0,0.564-0.113,0.769-0.316c0.052-0.051,0.097-0.107,0.136-0.169
		c0.04-0.059,0.074-0.121,0.104-0.186C2.14,1.444,2.167,1.374,2.187,1.303c0.009-0.07,0.009-0.142,0-0.213
		C2.186,0.802,2.07,0.525,1.865,0.321C1.44-0.102,0.753-0.102,0.328,0.321L0.328,0.321z"/>
	<path fill="#FFFFFF" d="M2.105,5.583C2.077,5.516,2.042,5.451,2.001,5.392C1.963,5.331,1.918,5.276,1.865,5.228
		c-0.425-0.422-1.112-0.422-1.537,0c-0.205,0.204-0.321,0.48-0.322,0.77c0.002,0.144,0.03,0.285,0.082,0.42
		c0.027,0.064,0.06,0.126,0.098,0.185c0.042,0.06,0.089,0.114,0.142,0.164c0.047,0.053,0.103,0.099,0.164,0.136
		c0.057,0.043,0.119,0.077,0.185,0.104c0.066,0.027,0.136,0.048,0.207,0.06c0.07,0.016,0.141,0.023,0.212,0.021
		c0.071,0.009,0.142,0.009,0.213,0c0.069-0.012,0.137-0.031,0.202-0.06c0.067-0.026,0.132-0.062,0.191-0.104
		C1.762,6.886,1.817,6.84,1.865,6.787c0.053-0.048,0.098-0.104,0.136-0.163c0.042-0.058,0.077-0.12,0.104-0.186
		C2.143,6.366,2.17,6.289,2.187,6.209c0.009-0.07,0.009-0.142,0-0.212c0.009-0.071,0.009-0.142,0-0.213
		C2.168,5.714,2.141,5.646,2.105,5.583L2.105,5.583z"/>
	<path fill="#FFFFFF" d="M2.105,10.483c-0.029-0.064-0.064-0.126-0.104-0.185c-0.038-0.062-0.083-0.116-0.136-0.164
		c-0.425-0.423-1.112-0.423-1.537,0c-0.053,0.048-0.099,0.103-0.137,0.164c-0.04,0.059-0.074,0.12-0.104,0.185
		c-0.028,0.066-0.049,0.136-0.06,0.208c-0.016,0.069-0.022,0.141-0.022,0.212c0.001,0.289,0.117,0.565,0.322,0.769
		c0.047,0.053,0.103,0.099,0.164,0.137c0.057,0.042,0.119,0.076,0.185,0.104c0.066,0.027,0.136,0.048,0.207,0.061
		c0.07,0.015,0.141,0.022,0.212,0.021c0.071,0.009,0.142,0.009,0.213,0c0.069-0.012,0.137-0.031,0.202-0.06
		c0.067-0.026,0.132-0.062,0.191-0.104c0.061-0.038,0.115-0.084,0.164-0.136c0.053-0.049,0.098-0.104,0.136-0.164
		c0.042-0.057,0.077-0.12,0.104-0.186c0.038-0.072,0.065-0.149,0.082-0.229c0.009-0.071,0.009-0.142,0-0.213
		c0.009-0.07,0.009-0.142,0-0.212C2.168,10.619,2.141,10.55,2.105,10.483L2.105,10.483z"/>
	<path fill="#FFFFFF" d="M13.158,4.906H4.368c-0.602,0-1.091,0.488-1.091,1.091c0,0.602,0.489,1.09,1.091,1.09h8.791
		c0.604,0,1.092-0.488,1.092-1.09C14.25,5.395,13.762,4.906,13.158,4.906L13.158,4.906z"/>
	<path fill="#FFFFFF" d="M8.934,9.813H4.368c-0.602,0-1.091,0.489-1.091,1.091c0,0.603,0.489,1.09,1.091,1.09h4.566
		c0.602,0,1.09-0.487,1.09-1.09C10.023,10.302,9.535,9.813,8.934,9.813L8.934,9.813z"/>
</g>
</svg>
