<?xml version="1.0" encoding="utf-8"?>
<!-- Generator: Adobe Illustrator 16.0.0, SVG Export Plug-In . SVG Version: 6.00 Build 0)  -->
<!DOCTYPE svg PUBLIC "-//W3C//DTD SVG 1.1//EN" "http://www.w3.org/Graphics/SVG/1.1/DTD/svg11.dtd">
<svg version="1.1" id="Layer_1" xmlns="http://www.w3.org/2000/svg" xmlns:xlink="http://www.w3.org/1999/xlink" x="0px" y="0px"
	 width="15px" height="15px" viewBox="0 0 15 15" enable-background="new 0 0 15 15" xml:space="preserve">
<g>
	<path fill="#FFFFFF" d="M7.5,0C3.358,0,0,3.358,0,7.5C0,11.643,3.358,15,7.5,15c4.143,0,7.5-3.357,7.5-7.5C15,3.358,11.643,0,7.5,0
		z M11.181,8.786H8.785v2.396c0,0.709-0.575,1.284-1.285,1.284s-1.285-0.575-1.285-1.284V8.786H3.819
		c-0.71,0-1.285-0.576-1.285-1.286s0.575-1.285,1.285-1.285h2.396V3.819c0-0.71,0.575-1.285,1.285-1.285s1.285,0.575,1.285,1.285
		v2.396h2.396c0.71,0,1.286,0.575,1.286,1.285S11.891,8.786,11.181,8.786z"/>
</g>
</svg>
