<?xml version="1.0" encoding="utf-8"?>
<!-- Generator: Adobe Illustrator 16.0.0, SVG Export Plug-In . SVG Version: 6.00 Build 0)  -->
<!DOCTYPE svg PUBLIC "-//W3C//DTD SVG 1.1//EN" "http://www.w3.org/Graphics/SVG/1.1/DTD/svg11.dtd">
<svg version="1.1" id="Layer_1" xmlns="http://www.w3.org/2000/svg" xmlns:xlink="http://www.w3.org/1999/xlink" x="0px" y="0px"
	 width="50px" height="50px" viewBox="0 0 50 50" enable-background="new 0 0 50 50" xml:space="preserve">
<g>
	<g>
		<path fill="#3796FA" d="M37.717,44.969c0,0.568-0.461,1.029-1.027,1.029H5.031c-0.567,0-1.029-0.461-1.029-1.029V20.542h1.995
			V8.283H5.031C2.257,8.283,0,10.539,0,13.313v31.656C0,47.743,2.257,50,5.031,50h31.656c2.773,0,5.03-2.257,5.03-5.031v-0.966
			h-4.002L37.717,44.969L37.717,44.969z"/>
	</g>
	<path fill="#3796FA" d="M44.969,0H13.312c-2.773,0-5.03,2.257-5.03,5.031v31.656c0,2.773,2.257,5.03,5.03,5.03h31.657
		c2.774,0,5.031-2.257,5.031-5.03V5.032C50,2.258,47.743,0,44.969,0z M44.969,37.717H13.312c-0.566,0-1.028-0.461-1.028-1.029V12.26
		h33.715v24.428C45.998,37.256,45.535,37.717,44.969,37.717z"/>
</g>
</svg>
