<?xml version="1.0" encoding="utf-8"?>
<!-- Generator: Adobe Illustrator 16.0.0, SVG Export Plug-In . SVG Version: 6.00 Build 0)  -->
<!DOCTYPE svg PUBLIC "-//W3C//DTD SVG 1.1//EN" "http://www.w3.org/Graphics/SVG/1.1/DTD/svg11.dtd">
<svg version="1.1" id="Layer_1" xmlns="http://www.w3.org/2000/svg" xmlns:xlink="http://www.w3.org/1999/xlink" x="0px" y="0px"
	 width="514.998px" height="513.393px" viewBox="311.413 275.303 514.998 513.393"
	 enable-background="new 311.413 275.303 514.998 513.393" xml:space="preserve">
<g>
	<path fill="#C1C5D5" d="M568.108,717.328H387.28c-2.48,0-4.501-2.02-4.501-4.5V351.172c0-2.482,2.021-4.502,4.501-4.502h180.828
		c19.678,0,35.686-16.007,35.686-35.684c0-19.676-16.008-35.684-35.686-35.684H387.28c-41.834,0-75.866,34.034-75.866,75.868
		v361.656c0,41.834,34.032,75.868,75.866,75.868h180.828c19.678,0,35.686-16.009,35.686-35.686S587.785,717.328,568.108,717.328z"/>
	<path fill="#C1C5D5" d="M815.785,506.597L693.641,386.061c-6.706-6.64-15.606-10.296-25.057-10.296
		c-9.627,0-18.652,3.772-25.418,10.623c-6.7,6.788-10.354,15.777-10.286,25.313c0.067,9.532,3.843,18.466,10.632,25.149
		l60.256,59.466H507.832c-19.677,0-35.684,16.008-35.684,35.684s16.007,35.684,35.683,35.684h195.938l-60.243,59.455
		c-6.8,6.692-10.576,15.636-10.638,25.177c-0.062,9.52,3.595,18.508,10.293,25.308c6.772,6.845,15.79,10.615,25.389,10.615
		c9.458,0,18.356-3.651,25.056-10.283L815.8,557.387c6.744-6.675,10.611-15.928,10.611-25.388
		C826.412,522.396,822.638,513.377,815.785,506.597z"/>
</g>
</svg>
