<?xml version="1.0" encoding="utf-8"?>
<!-- Generator: Adobe Illustrator 16.0.0, SVG Export Plug-In . SVG Version: 6.00 Build 0)  -->
<!DOCTYPE svg PUBLIC "-//W3C//DTD SVG 1.1//EN" "http://www.w3.org/Graphics/SVG/1.1/DTD/svg11.dtd">
<svg version="1.1" id="Layer_1" xmlns="http://www.w3.org/2000/svg" xmlns:xlink="http://www.w3.org/1999/xlink" x="0px" y="0px"
	 width="31.412px" height="28px" viewBox="0 0 31.412 28" enable-background="new 0 0 31.412 28" xml:space="preserve">
<g>
	<path fill="#FFFFFF" d="M30.212,4.103l-19.238-4.07C10.16-0.14,9.354,0.385,9.181,1.199L8.816,3.547l22.197,4.698l0.365-2.35
		C31.55,5.083,31.026,4.276,30.212,4.103L30.212,4.103z M30.212,4.103"/>
	<path fill="#FFFFFF" d="M22.122,8.744c-0.225-0.81-1.07-1.288-1.879-1.063L16.59,8.694L7.981,6.872l-0.947,4.474l-5.916,1.643
		c-0.809,0.225-1.287,1.07-1.063,1.879l3.334,12.015c0.225,0.809,1.071,1.287,1.879,1.063l19.125-5.308
		c0.809-0.225,1.287-1.069,1.063-1.879l-0.571-2.063l2.145,0.453c0.813,0.173,1.62-0.353,1.793-1.166l1.356-6.413l-7.726-1.635
		L22.122,8.744z M24.331,14.849l0.473-2.235c0.071-0.334,0.403-0.551,0.738-0.479l2.235,0.474c0.335,0.07,0.551,0.402,0.479,0.737
		l-0.473,2.235c-0.071,0.335-0.403,0.551-0.737,0.479l-2.235-0.473C24.475,15.516,24.259,15.184,24.331,14.849L24.331,14.849z
		 M1.451,14.187l5.292-1.469l12.487-3.465l1.344-0.374c0.024-0.007,0.049-0.01,0.073-0.01c0.107,0,0.236,0.071,0.274,0.206
		l0.157,0.568l0.494,1.781L1.907,16.883l-0.652-2.349C1.214,14.387,1.304,14.227,1.451,14.187L1.451,14.187z M24.256,21.09
		c0.025,0.091-0.001,0.166-0.027,0.213c-0.026,0.048-0.077,0.109-0.169,0.134L4.936,26.745c-0.024,0.007-0.049,0.01-0.073,0.01
		c-0.108,0-0.237-0.07-0.274-0.206l-1.945-7.008l19.668-5.458l1.199,4.322L24.256,21.09z M24.256,21.09"/>
	<path fill="#FFFFFF" d="M8.026,21.569C7.935,21.24,7.59,21.044,7.26,21.136l-2.233,0.62c-0.33,0.091-0.525,0.436-0.433,0.766
		l0.62,2.233c0.092,0.33,0.437,0.524,0.766,0.434l2.233-0.62c0.33-0.092,0.525-0.437,0.434-0.767L8.026,21.569z M8.026,21.569"/>
</g>
</svg>
