<?xml version="1.0" encoding="utf-8"?>
<!-- Generator: Adobe Illustrator 16.0.0, SVG Export Plug-In . SVG Version: 6.00 Build 0)  -->
<!DOCTYPE svg PUBLIC "-//W3C//DTD SVG 1.1//EN" "http://www.w3.org/Graphics/SVG/1.1/DTD/svg11.dtd">
<svg version="1.1" id="Layer_1" xmlns="http://www.w3.org/2000/svg" xmlns:xlink="http://www.w3.org/1999/xlink" x="0px" y="0px"
	 width="28.059px" height="28px" viewBox="0 0 28.059 28" enable-background="new 0 0 28.059 28" xml:space="preserve">
<g>
	<path fill="#FFFFFF" d="M8.744,7.432c0-2.893,2.354-5.246,5.247-5.246c2.892,0,5.246,2.353,5.246,5.246
		c0,2.805-2.21,5.102-4.979,5.24c-0.089-0.002-0.177-0.002-0.266-0.002c-0.088,0-0.177,0-0.265,0.002
		C10.956,12.533,8.744,10.236,8.744,7.432L8.744,7.432z M16.777,25.795H3.317c-0.466,0-0.748-0.262-0.874-0.416
		c-0.218-0.268-0.303-0.617-0.231-0.957c1.134-5.449,5.94-9.429,11.489-9.563c0.096,0.004,0.192,0.005,0.29,0.005
		s0.195-0.001,0.292-0.005c1.701,0.039,3.336,0.428,4.866,1.154c0.546,0.26,1.198,0.027,1.457-0.518s0.027-1.197-0.518-1.456
		c-0.538-0.256-1.087-0.476-1.645-0.66c1.808-1.356,2.979-3.519,2.979-5.948C21.423,3.334,18.088,0,13.991,0
		C9.892,0,6.558,3.334,6.558,7.432c0,2.433,1.174,4.596,2.985,5.953c-1.659,0.546-3.216,1.396-4.58,2.518
		c-2.5,2.055-4.237,4.923-4.893,8.073c-0.205,0.987,0.041,2.002,0.676,2.782c0.631,0.777,1.568,1.223,2.57,1.223h13.46
		c0.604,0,1.093-0.489,1.093-1.094C17.87,26.283,17.381,25.795,16.777,25.795L16.777,25.795z"/>
	<path fill="#FFFFFF" d="M27.135,25.703c0-0.055-0.019-0.109-0.057-0.163c-0.306-0.365-0.551-0.679-0.735-0.94
		c0.114-0.223,0.201-0.43,0.261-0.621l1.268-0.195c0.049-0.006,0.092-0.034,0.13-0.086c0.039-0.053,0.058-0.105,0.058-0.16v-1.512
		c0-0.06-0.019-0.113-0.058-0.159c-0.038-0.046-0.084-0.075-0.139-0.085l-1.242-0.188c-0.06-0.186-0.152-0.409-0.278-0.671
		c0.082-0.119,0.205-0.283,0.368-0.49s0.278-0.354,0.344-0.441c0.038-0.055,0.057-0.106,0.057-0.154
		c0-0.148-0.393-0.584-1.177-1.309c-0.055-0.043-0.111-0.065-0.172-0.065c-0.064,0-0.119,0.02-0.163,0.058l-0.965,0.728
		c-0.223-0.114-0.428-0.199-0.612-0.254l-0.188-1.25c-0.005-0.055-0.032-0.103-0.082-0.144c-0.049-0.041-0.103-0.061-0.163-0.061
		h-1.521c-0.125,0-0.207,0.064-0.244,0.195c-0.066,0.251-0.129,0.671-0.188,1.259c-0.234,0.077-0.444,0.163-0.629,0.262l-0.94-0.735
		c-0.055-0.038-0.112-0.058-0.172-0.058c-0.104,0-0.318,0.161-0.646,0.482s-0.551,0.563-0.671,0.728
		c-0.038,0.043-0.057,0.098-0.057,0.164c0,0.049,0.019,0.104,0.057,0.162c0.306,0.365,0.552,0.679,0.736,0.94
		c-0.114,0.224-0.202,0.431-0.262,0.621l-1.267,0.196c-0.049,0.006-0.093,0.033-0.131,0.086c-0.038,0.051-0.058,0.104-0.058,0.16
		v1.511c0,0.06,0.02,0.114,0.058,0.159c0.038,0.047,0.084,0.072,0.14,0.078l1.242,0.196c0.064,0.207,0.16,0.431,0.286,0.67
		c-0.088,0.12-0.216,0.286-0.385,0.499s-0.28,0.357-0.335,0.433c-0.038,0.056-0.057,0.106-0.057,0.155
		c0,0.147,0.392,0.584,1.176,1.309c0.056,0.043,0.112,0.064,0.172,0.064c0.07,0,0.125-0.02,0.164-0.057l0.964-0.728
		c0.224,0.114,0.428,0.198,0.613,0.253l0.188,1.25c0.005,0.055,0.032,0.104,0.081,0.144S22.008,28,22.067,28h1.521
		c0.125,0,0.207-0.066,0.245-0.196c0.065-0.257,0.128-0.679,0.188-1.267c0.218-0.065,0.428-0.15,0.629-0.254l0.939,0.736
		c0.055,0.037,0.111,0.057,0.172,0.057c0.104,0,0.318-0.162,0.643-0.486c0.323-0.324,0.548-0.568,0.674-0.73
		C27.116,25.82,27.135,25.77,27.135,25.703L27.135,25.703z M24.308,24.249c-0.409,0.408-0.902,0.612-1.479,0.612
		c-0.578,0-1.071-0.204-1.479-0.612c-0.408-0.409-0.613-0.901-0.613-1.479s0.205-1.07,0.613-1.479s0.901-0.613,1.479-0.613
		c0.577,0,1.07,0.204,1.479,0.613c0.408,0.409,0.612,0.901,0.612,1.479S24.716,23.84,24.308,24.249L24.308,24.249z M24.308,24.249"
		/>
</g>
</svg>
